<?xml version="1.0" encoding="utf-8"?>
<!-- Generator: Adobe Illustrator 25.2.3, SVG Export Plug-In . SVG Version: 6.00 Build 0)  -->
<svg version="1.1" id="Layer_3" xmlns="http://www.w3.org/2000/svg" xmlns:xlink="http://www.w3.org/1999/xlink" x="0px" y="0px"
	 viewBox="0 0 314 293.4" style="enable-background:new 0 0 314 293.4;" xml:space="preserve">
<style type="text/css">
	.st0{fill:#07204C;}
	.st1{fill:#FFFFFF;}
</style>
<path class="st0" d="M313.7,273.8c-0.1-1.1-0.7-1.9-1.6-2.3c-0.8,0.4-1.6,0.7-2.4,1v0.4c-1.8,0.6-2.6-0.1-2.4-2l0.5-0.1
	c0.1-0.2,0.2-0.5,0.1-0.7l-0.2-0.4v-0.1c-0.3-0.4-0.8-0.6-1.2-0.6c-0.2-0.2-0.4-0.3-0.7-0.4l-0.5-0.7c0.1-0.1,0.2-0.2,0.2-0.2
	c-0.2-0.2-0.4-0.5-0.4-0.9c-0.4-0.2-0.8-0.3-1.2-0.4c-0.1-0.2-0.2-0.4-0.5-0.5c-0.3-1.1-0.8-2.1-1.5-2.9c-0.3,0-0.6-0.1-0.9-0.2
	c-0.5,0.8-1,1.7-1.3,2.6l-1.1,0.2l-0.9-0.9c-0.3-1.6-1.5-2.5-3.2-2.4l-1.2,1.1l-1.7-0.4l0.1-1.1l0.7-1l-0.2-0.2
	c-0.9,0.1-1.8-0.1-2.6-0.7c-1.5,0.2-3.2,0.2-4.8,0.1c-0.6-0.3-1-0.8-1.3-1.3l-0.4,0.4v0.6L283,260c-0.4,0.4-0.9,0.5-1.3,0.5
	c-1.3-1.3-1.8-3-1.3-4.8l-1.3-0.9c-0.4,0.7-1,1.3-1.6,1.8l0.1,0.4l-0.2,0.2l-0.7-0.4c-0.7-1.5-2.1-2.9-3.5-3.8l-1.3,0.2
	c-1-0.5-1.8-1.3-2.3-2.2c0.4-0.3,0.8-0.6,1.2-1c-0.2-0.7-0.3-1.4-0.2-2.1l1-1.2c-0.4-0.8-0.8-1.6-1.3-2.4l0.2-0.7
	c0.8,0,1.5-0.1,2.3-0.1c0.6-1.1,0.5-2.3-0.2-3.4l0.4-0.1c0.7,0.1,1.3,0.5,1.5,1.2c1.7,0.1,3.6,0.3,5.4,0.5c1.1,0.6,2.1,1.3,3.2,2
	c-0.5-1.3-1.8-2.7-3-3.5c-1.4,0.1-2.8-0.2-4-0.9l-0.1-0.5l0.4-0.9c-0.5-0.2-1-0.2-1.6,0.1l-1.7-0.6c-0.4-0.9-0.6-1.8-0.5-2.8
	c1.6-0.1,3.2-0.1,4.9,0.1l0.9,0.7c2.8-0.3,5.9,0.7,8.5,2.4c0-1-0.1-2-0.2-3c1-0.8,1.7-1.9,2-3.2l0.5-0.4l1.2,1l0.9-0.5
	c1.1,0,2,0.5,2.4,1.5c0.9,0.4,1.8,0.5,2.8,0.2l0.1-0.4l-1-0.6v-1.8l0.4-0.4V230c-0.9,0.3-1.8,0.7-2.6,1.3h-0.9l-0.7-0.6l-0.1-1.6
	c-0.9,0.1-1.7-0.1-2.4-0.6v-0.6c3.2-0.5,6.4-1.6,9.1-3l-0.1-0.6l-0.2-0.2c-1.7,0.6-3.5,0.8-5.1,0.4l0.2-0.9c1.4-1.8,3.3-2.6,5.4-2.1
	c0-1.2,0.3-2.4,0.7-3.4l-2-0.1l0.4-1.6l-0.5-0.4l-1.3,0.6c-0.6,3.3-2.5,5.6-5.7,6.1l-0.7-0.6l-0.1-3c-0.5-0.3-1-0.3-1.6-0.1
	l-1.8-0.9c0-0.7,0-1.5,0-2.2c1.1-0.9,2.3-1.6,3.7-2.1l0.2-0.9l-0.2-0.5c-2.5,0.7-4.9,0.2-6.8-1.6c-0.6,0.3-1,0.8-1.1,1.5l0.4,0.6
	v0.7c-1.6,1.4-3.4,2.6-5.4,3.4c1.2,4.6-0.3,8.2-4.6,9.6c-2.1-0.2-3.9-1.3-5.2-3.2c0-0.5-0.1-0.9-0.2-1.3l0.2-0.6
	c0.6-0.1,1.3-0.4,1.8-0.9c-0.3-0.3-0.6-0.6-1-0.9c-2,1.9-4.5,2.4-6.8,1.2V221l-0.5-0.6c-0.4-1.1-0.7-2.3-0.9-3.5
	c0.7-1,1.4-2,2.3-2.8c2.1-0.6,3.9-0.2,5.4,1.3c0.4,0.1,0.8,0,1.1-0.2V215l-1-1.6c0-0.2,0-0.4,0-0.6c0.3-0.4,0.7-0.7,1.1-0.9
	c0.7,0,1.3-0.2,1.8-0.5c0-0.8,0.1-1.5,0.2-2.3c1.2-0.8,2.3-1.8,3.2-3V206c0.2-0.1,0.4-0.2,0.5-0.4c0.7,0.2,1.3,0.3,2,0.4
	c0.5-0.4,1-0.9,1.5-1.3c0.5-0.2,1-0.2,1.6-0.2c0.2-0.2,0.5-0.5,0.7-0.7c-0.2-0.3-0.3-0.7-0.5-1c-0.9,0.3-1.7,0.7-2.6,1.1v-0.1h-0.1
	c-0.6-0.5-1-1.2-1.2-2h-0.1v-0.1l-0.2-0.2c-0.2-0.1-0.4-0.1-0.6-0.1c-0.5-0.4-0.6-1-0.4-1.6l0.1-0.1c0-0.1,0-0.2,0-0.2h-0.1v-0.1
	c-0.4-0.2-0.8-0.4-1.1-0.7v-0.2l0.1-0.1c0-0.5,0-0.9-0.1-1.3c-0.2-0.2-0.5-0.3-0.7-0.5c0-0.4,0.1-0.9,0.1-1.3
	c0.3-0.1,0.6-0.2,0.9-0.5c0-0.1,0-0.2,0-0.2l-0.2-0.4c0-0.4,0-0.8,0-1.2c-0.2-0.3-0.6-0.5-1-0.6v-0.2c-0.2-0.2-0.5-0.3-0.7-0.4
	c-0.6-1.3-1.3-2.7-1.8-4h0.1l0.1,0.1l0.1-0.1c0.1-0.6-0.1-1.1-0.4-1.6c0-0.4,0-0.8,0-1.2c-0.2-0.3-0.4-0.6-0.7-0.7h-0.1l-0.1-0.1
	h-0.1c-0.1-0.4-0.3-0.7-0.6-1l-0.1,0.1h-0.2c-0.2-0.4-0.3-0.7-0.5-1.1c-0.6,0-1.1-0.2-1.5-0.7l-0.4,0.1l-0.2-0.2H264
	c0-0.2,0-0.4,0-0.6l-0.1-0.1c-0.2,0-0.3,0-0.5,0c-0.1-0.3-0.2-0.6-0.1-0.9c-0.2-0.4-0.4-0.8-0.6-1.2h-0.1l-0.1,0.1
	c-0.2-0.1-0.4-0.1-0.6-0.1l-0.1-0.1v-0.1h0.1l0.1-0.2l-0.2-0.4h-0.5l-0.1-0.1V177l0.1-0.1v-0.1c0.2,0.1,0.4,0.1,0.6,0.1
	c0.1-0.1,0.1-0.2,0.1-0.4c-0.2-0.1-0.5-0.2-0.7-0.1l-0.1,0.1c-0.1,0-0.2,0-0.2,0c0-0.1,0-0.2,0-0.2l0.1-0.1h-0.1
	c0-0.3,0-0.6-0.1-0.9l0.1-0.1V175l-0.2-0.2h-0.4l-0.1-0.1c0.1-0.4,0.2-0.7,0.2-1.1c-0.1,0-0.2,0-0.2,0v0.1c-0.1,0-0.2,0-0.2,0
	c0-0.3,0-0.6,0.1-0.9h-0.1c0-0.4,0-0.7,0.2-1.1c-0.1-0.6-0.5-1.2-1-1.6c-0.4-0.1-0.8-0.2-1.2-0.2v-0.1c0.1-0.1,0.2-0.2,0.2-0.2v0.1
	c0.1,0,0.2,0,0.4,0c0.2-0.2,0.3-0.4,0.2-0.7c-0.1,0.1-0.2,0.2-0.2,0.4c-0.1,0-0.2,0-0.2,0c0-0.1,0-0.2,0-0.2
	c0.5-0.7,0.7-1.5,0.5-2.3h-0.1l-0.1,0.1c-0.1,0-0.2,0-0.2,0v-0.1l-0.1-0.1h0.1c0.2-0.3,0.4-0.5,0.6-0.7l0.2,0.1l0.1-0.1l0.1-0.6
	c-0.2-0.1-0.4-0.1-0.6-0.1c0-0.2,0-0.4,0-0.6h0.1v-0.1c0.4,0,0.7,0,1.1,0c0-0.1,0-0.2,0-0.2c-0.2,0-0.4,0-0.6-0.1
	c0-0.5,0-0.9-0.1-1.3l-0.1-0.1v-0.2l-0.1-0.1c0.4-0.5,0.6-1.2,0.6-1.8c0.1-0.1,0.2-0.2,0.2-0.2l0.2,0.1c0,0.1,0,0.2,0,0.4l0.1,0.1
	h0.1l0.1-0.1h0.1c0-0.1,0-0.2,0-0.2l-0.1-0.1h-0.1c-0.1-0.1-0.1-0.2-0.1-0.4h0.1c0.1-0.1,0.2-0.2,0.2-0.2h0.1
	c0.1-0.3,0.1-0.6,0.2-0.9l-0.1-0.4l0.1-0.1c0.3,0,0.6,0.1,0.7,0.4h0.1c0.1-0.1,0.2-0.2,0.2-0.2l-0.1-0.5c-0.1-0.1-0.2-0.2-0.2-0.4
	l-0.1,0.1l-0.1-0.1c-0.1-0.3,0-0.6,0.1-0.9c0.2-0.1,0.3-0.1,0.5-0.1c0-0.1,0-0.2,0-0.2l-0.2-0.2c0-0.1,0-0.2,0-0.2l0.1-0.1l0.1,0.1
	c0.2,0,0.3,0.1,0.5,0.1c0.1-0.3,0.2-0.6,0.2-1l-0.6-0.5H262c0-0.1,0-0.2,0-0.4h0.1v-0.1h0.1v-0.1h0.4c-0.1-0.4-0.2-0.8-0.2-1.2
	c0.3,0,0.5,0.1,0.7,0.2c0.1-0.1,0.2-0.2,0.2-0.2c0-0.2-0.1-0.3-0.1-0.5h-0.1c-0.2-0.1-0.2-0.3-0.2-0.5h0.1v-0.1c0.1,0,0.2,0,0.4,0
	l0.1,0.1h0.2c0.3-0.2,0.4-0.4,0.4-0.7h-0.2l-0.1-0.5c0.1-0.1,0.1-0.2,0.1-0.4c-0.1-0.2-0.3-0.3-0.5-0.4c0-0.5,0.3-1,0.7-1.3v-0.1
	l0.5-0.5c0.2,0,0.3,0,0.5,0c0-0.1,0-0.2,0-0.2c-0.2-0.2-0.4-0.3-0.6-0.4v-0.1l0.1-0.1h0.1l0.1-0.1c0-0.3,0-0.7,0.1-1h-0.2
	c-0.1-0.1-0.2-0.2-0.2-0.4h0.4l0.1-0.1v-0.1l-0.1-0.1c-0.3,0.1-0.6,0.1-1,0.1l-0.1,0.1v0.1c-0.1,0-0.2,0-0.2,0v-0.1
	c-1.7,0-3.4,0-5.1,0v0.1c-2.8,0-5.7,0.1-8.5,0.2l-0.1-0.1c-8.1,0.3-16.2,0.5-24.3,0.6l-0.1,0.1c-26,0.4-52,0.9-78,1.1
	c5.5-2.1,5.8-4.8,0.9-7.9c-0.3-0.5-0.4-1-0.2-1.6c0.4-0.6,0.7-1,1.2-1.6h0.1c0.3-0.5,0.6-1,0.9-1.5c0-0.2,0-0.3,0.1-0.5
	c-0.1-0.3-0.1-0.6-0.1-0.9c-1.6-1.3-3.1-3-4-4.5c4.2,0.7,7.6-0.4,9-4.1l-0.1-0.1v-0.1l-0.6-0.5h-0.1l-0.6-0.6h-0.1
	c-0.2-0.3-0.4-0.6-0.7-0.7v-0.1h-0.1c-0.2-0.7-0.3-1.5-0.2-2.3h0.1l0.1-0.4c-0.2-0.1-0.4-0.3-0.6-0.4l-0.2,0.2h-0.1l-0.4,0.5
	c-1-2.1-0.4-3.5,1.7-3.9c-0.1,1.4,0.3,2.8,1.1,3.9v0.1h0.1c0.2,0.4,0.5,0.6,0.9,0.6l0.1,0.1h1.6l0.7-0.7c-2-2.7-3.1-5.9-3-9.6
	c-0.1-0.1-0.2-0.2-0.4-0.2c-0.1-0.2-0.1-0.4-0.1-0.6c0.6-1,1.5-1.2,2.6-0.7v0.1h0.1c0.6-0.3,1.2-0.6,1.8-0.7
	c0.2-0.1,0.4-0.3,0.6-0.5h0.1c0.4-0.5,0.9-0.9,1.5-1.2v-0.1h0.1c0-0.1,0.1-0.3,0.2-0.4c0.1-0.5,0.2-1,0.1-1.5l-0.5-0.4
	c-0.1,0-0.2,0-0.4,0l-0.1-0.1c-0.2,0-0.3,0-0.5,0l-0.1,0.1c-1,0.5-2.2,0.8-3.4,0.7c-0.1-0.2-0.3-0.2-0.5-0.2c-0.5-0.5-1-1.1-1.5-1.7
	c0-0.3,0-0.6,0-0.9l0.1-0.1c0-0.1,0-0.2,0-0.2c0.3-0.4,0.7-0.8,1.1-1.1h0.2c1.4,2.1,3.5,2.9,5.7,1.7c0.2-2.1,0.2-4.3,0.1-6.5
	c0.4-1.4,1.4-2.4,2.7-2.7l0.1-0.1h0.1l0.1-0.2h0.1c0-0.2-0.1-0.4-0.2-0.5c-0.4,0.1-0.7,0-1-0.4c0-0.4,0-0.7,0-1.1l0.1-0.1
	c0.2-1.5,0.5-3,1-4.4l0.1-0.1v-0.1h0.1l0.2-0.2v-0.1h0.1c0.7-0.4,1.7-0.7,2.6-0.6c0.3,0.8,0.3,1.5,0.2,2.3h0.1
	c0.1,0.9,0.6,1.4,1.6,1.3c0.1-0.2,0.3-0.2,0.5-0.2c0.2-0.2,0.3-0.5,0.5-0.7v-0.6h0.1c-0.3-0.3-0.7-0.7-1-1.1h-0.1
	c-0.1-0.2-0.2-0.4-0.4-0.5c0-0.1,0-0.3-0.1-0.4c0.1-0.1,0.1-0.2,0.1-0.4h0.1v-0.1c0.7-0.1,1.3-0.4,1.8-0.9h0.1
	c0.6-0.7,1.3-1.5,1.8-2.3c0.2,0,0.4,0,0.6-0.1l0.1-0.2c0.2,0,0.3,0,0.5-0.1c0.1-0.1,0.1-0.2,0.1-0.4l-0.2-0.2c0-0.2,0-0.4,0.1-0.6
	l-0.1-0.2c-0.2,0.1-0.3,0.1-0.5,0.1c0.2-0.6,0.3-1.3,0.2-2c0.3-0.4,0.7-0.8,1.1-1.2V77h0.1l0.2-0.2c1.2,0,2.5-0.2,3.7-0.5v-0.1
	c0.8-0.4,1.4-1,1.7-1.8l-0.2-0.1c-0.1-0.3-0.1-0.7-0.2-1c-2.2,0.1-4.2-0.8-4.8-2.7c1.7-0.8,3.4,0.1,4.9,1.6V72h0.1
	c-0.1-0.7-0.1-1.5-0.1-2.2c1.8-0.3,3-1.3,3-2.9c0.7-0.3,1.2-0.8,1.5-1.5c0-0.2,0-0.3,0.1-0.5l-0.1-0.7c-0.4-0.2-0.8-0.3-1.2-0.4
	c-0.5-0.7-1.2-1.1-2-1.1l-0.1,0.5c0.3,0.5,0.6,0.9,0.7,1.5c0,0.2-0.1,0.4-0.2,0.5l-0.1,1.5c-0.9-0.8-2-1-3-0.4H179
	c-0.5,0.3-1.1,0.4-1.7,0.2l-0.1-0.1c-0.6-0.1-1.2-0.3-1.8-0.5l-0.4-0.6c-0.2-1.2-0.1-2.6,0.4-3.8h0.1l0.1-0.2c0.6-0.3,1.2-0.6,1.7-1
	c0.4,0,0.7,0.2,1,0.5c0.6-0.2,1.1-0.7,1.5-1.3c0.4-0.1,0.7-0.2,1.1-0.2c0.3,0.1,0.6,0.3,0.9,0.6c0.4-0.5,0.6-1,0.9-1.6l0.5-0.1
	c0.2,0.1,0.5,0.2,0.7,0.2c0.5,0.4,0.9,0.8,1.3,1.2v0.2c0.1,0.1,0.2,0.2,0.2,0.2h0.1l0.1,0.1c0.3-0.1,0.6-0.3,0.9-0.6
	c-0.2-0.9,0.1-1.7,0.7-2.2c-0.8-0.8-1-1.7-0.7-2.8c0.2-0.2,0.4-0.4,0.6-0.5l0.5,0.1c0.2,0.4,0.4,0.7,0.7,1l0.1-0.1
	c0.1,0,0.2,0,0.2,0l0.6-0.5h0.1l0.4-0.4h0.1l0.1-0.1V54c1.1-0.7,1.5-1.6,1.1-2.7c-2-0.4-4.2-1.1-6-1.7h-0.1c0.3-1,0.5-2,0.6-3
	c0.5-0.2,1-0.5,1.5-0.9v-0.1l0.1-0.1c0-0.1,0-0.3,0.1-0.4c-0.1-0.3-0.1-0.6-0.1-0.9l-0.1-0.1V44l-0.5-0.5h-0.1l-0.1-0.1h-0.1v-0.1
	l-0.7-0.1c-0.2,0.1-0.4,0.2-0.6,0.4v0.1c-0.5,0.2-1,0.5-1.5,0.9c-1.4-0.3-2.7-0.8-3.9-1.7h-0.1c-0.2-0.3-0.4-0.6-0.6-0.9h-0.1
	c-0.1-0.2-0.2-0.3-0.4-0.5v-0.1L178,41c0-0.4,0-0.9,0-1.3c0.7-0.9,1.1-2,1.1-3.2l0.2-0.4c1.2,2.6,3.2,4.4,5.9,4.8
	c0.1-0.2,0.3-0.3,0.5-0.4c0.1-0.2,0.2-0.5,0.1-0.7c-0.3-0.6-0.8-1-1.5-1.3c-0.8-0.3-1.7-0.7-2.4-1c-0.5-0.3-1-0.6-1.5-1.1l-0.2-0.7
	c0.7-0.5,1.4-1,2.1-1.5h0.1c2.4-1.5,3-3.2,1-5c-0.7,0.4-1,1.1-1,1.8c-0.3,0.3-0.5,0.6-0.5,1c-1.3,0.4-2.6,0.8-3.8,1.2l-0.4,0.4v0.1
	c-0.2-0.1-0.3-0.1-0.5-0.1c-0.3-0.2-0.6-0.4-0.9-0.7v-0.1c-0.9-1.2-1-2.6-0.1-3.7h0.2V29c0.4-0.3,0.6-0.7,0.6-1.1h0.1
	c1.9-0.9,3.5-2.5,4.1-4.3c-1.8-0.9-3.8-1.3-5.7-1.1c-0.1-0.1-0.3-0.2-0.5-0.1c-0.5-0.8-0.5-1.8,0.1-2.7h-0.1l-0.4-0.4
	c0.1-0.3,0.2-0.6,0.1-0.9l0.1-0.1c-0.2-0.6-0.2-1.2,0.1-1.7l0.4-0.2c0.2-0.4,0.3-0.8,0.4-1.2c0.4-0.3,0.7-0.6,1.1-0.9
	c2.2-0.5,3.7-2.1,3.8-4.4h-0.1l0.1-0.1c-0.1-0.9-0.5-1.6-1.2-2.2c0.1-0.1,0.2-0.2,0.2-0.2c0-1.2-0.6-2.2-1.7-2.7
	c-0.4,0.2-0.8,0.3-1.2,0.4l-0.2,0.2h-0.1l-0.1,0.1c-0.1,0.2-0.1,0.5-0.1,0.7c0.2,0.2,0.3,0.3,0.5,0.5c-0.2,0.2-0.3,0.3-0.5,0.5
	c0.1,0.7,0.2,1.4,0.5,2.1l-0.1,0.1c-1.1,2.2-2.7,2.4-4.5,0.7H172c-0.5-1-0.2-1.9,0.6-2.7c-0.2-0.2-0.3-0.4-0.2-0.6
	c1-0.8,1.8-1.8,2.2-3C116.7,3.7,58.9,3.1,1.1,2.5C0.4,26.9,0.4,51.4,0,75.9c0.3,0,0.6-0.1,0.9-0.2C1,75.8,1.2,76,1.5,76
	c0.3,0.8,0.7,1.5,1.2,2.2c0.5,2,1.7,3.4,3.7,3.9c0.2,0.3,0.2,0.5,0.2,0.9h0.1c0.4,0.4,0.9,0.5,1.3,0.1c0.2,0.2,0.4,0.4,0.5,0.6
	c0,0.6,0.2,1,0.7,1.3c0,0.2,0,0.5,0,0.7l0.1,0.1l0.1,0.5l0.2,0.2h0.1l0.2,0.4c0,0.4,0,0.9,0,1.3c0.8,0.6,1.6,1.3,2.3,2
	c0,0.6,0.3,1.2,0.9,1.5C13.1,92,13,92.3,13,92.6c-0.2,0.3-0.4,0.7-0.4,1.1c0.1,0.5,0.3,0.9,0.7,1.2c0.2,0.5,0.3,1,0.2,1.6
	c0.2,0.1,0.3,0.2,0.5,0.2v0.1l0.2,0.1c0.1,0.8-0.3,1.6-1,2.1l-0.2-0.1c0,1.3,0.1,2.7,0.1,4.3H13c-0.1-0.1-0.2-0.2-0.2-0.2
	c-0.8,3.8,1,6.4,5.1,6.6v0.1l0.1,0.1c0,0.1,0,0.2,0,0.4c0.2,0.2,0.5,0.4,0.9,0.5c0.1,1-0.4,1.8-1.3,2.1c-0.1,0.3-0.2,0.6-0.1,1
	c1,0.7,2,1.4,2.9,2.2l0.2,0.6l-0.5,0.7v0.6c0.2,0.1,0.4,0.2,0.6,0.1c1.2,0.4,1.7,1.2,1.7,2.4l-0.1,0.1c0,0.2,0,0.3,0,0.5
	c0.1,0.1,0.2,0.2,0.4,0.4v0.1l-0.1,0.1v0.2l-0.2,0.1c-0.3,1-0.7,2.1-1.2,3c0,0.2,0.1,0.4,0.2,0.5v0.1c0.4-0.1,0.7,0,1,0.2
	c0.4,0.8,0.9,1.5,1.6,2.1c0.5,0,0.9,0,1.3-0.1l0.2,0.7h0.1c0,0.7-0.1,1.3-0.1,2c0.8,1.2,1.1,2.6,0.9,4.1c0.2,0.2,0.5,0.5,0.7,0.7
	c0.6,0,1-0.3,1.2-0.9h0.1c0.4-0.2,0.7-0.4,1.1-0.6c0.3,0.1,0.6,0.1,1,0.1c0,0.1,0,0.3,0.1,0.4c-0.4,1.1-0.7,2.1-0.9,3.2
	c0.2,0.1,0.3,0.3,0.4,0.5c0,0.4,0,0.7-0.1,1.1l-0.5,0.5c-0.1,1.3,0.5,2.3,1.6,3l-0.1,0.1v0.1c-0.1,0.2-0.3,0.3-0.5,0.4
	c0.2,0.6,0.5,1.2,1,1.7c0,0.2,0,0.4,0,0.6c-0.7,0.8-1.5,1.2-2.4,1.3l-0.4-0.1l-0.2,0.1c-0.6,1.1-0.3,2.1,0.9,2.7h0.1
	c0.6,0.6,1,1.2,1.3,2h0.1c0,0.2,0,0.5,0,0.7h-0.1c-0.2,0.4-0.5,0.7-1,0.7l-0.1-0.1c-0.1,0-0.2,0-0.2,0l-0.1,0.1h-0.1l-0.1,0.6h-0.1
	c0,0.2,0,0.5,0,0.7c-0.9,0.6-1,1.4-0.2,2.2h0.1c0,0.7,0,1.5,0,2.2l0.2,0.2c0.2,1.3-0.4,2.2-1.6,2.4l-0.4,0.4l-0.1,0.5l-0.1,0.1
	c-0.1,0.6-0.2,1.1-0.2,1.7c-0.8,0.3-1.3,0.8-1.7,1.6l0.1,0.1v0.1l0.5,0.6c-0.2,1.9-1.1,3.5-2.8,4.3c-0.8,0.5-1.4,1.2-1.8,2.1
	c0,0.6-0.1,1.1-0.1,1.7h0.1c0,0.4,0,0.7,0.1,1.1l0.1,0.1c-0.1,0.2-0.2,0.3-0.2,0.5h-0.1l-0.1,0.1c-0.1-0.1-0.2-0.2-0.4-0.2
	c-0.4,0.2-0.8,0.3-1.2,0.4c-0.3,0.4-0.6,0.8-1,1.1c0.1,0.7,0.1,1.4-0.1,2.1l-0.4,0.2h-0.1l-0.1,0.1v0.1c0.3,0.6,0.9,1.1,1.6,1.3
	c0,0.3,0.1,0.7,0.2,1c-0.2,0.3-0.4,0.5-0.5,0.9c0.6,1.5,1,3.1,0.9,4.5c-1.1,0.6-2,1.4-2.7,2.4h-0.4c-0.1,0.1-0.2,0.2-0.4,0.4v0.1
	L16,191v0.2l0.1,0.1c0.1,1.2-0.1,2.4-0.6,3.5l0.1,0.2h0.2c0.5,1.3,1.5,2.2,2.8,2.6c0.1,0.1,0.2,0.2,0.2,0.2v0.1
	c0.1,1,0.3,2.3,0.4,3.3c-0.2,0.6-0.5,1.2-0.9,1.7h-0.1c-0.2,1.1,0.1,2.2,0.7,3h0.1v0.1l0.1,0.1c0.1,0.8,0.4,1.6,0.9,2.3l-0.2,0.5
	h-0.1l-0.2-0.2h-0.1c0,0.2,0,0.4,0,0.6l-0.1,0.1c0,0.4,0,0.7,0,1.1c-0.5,0.5-1,1-1.6,1.5h-0.1v0.1h-0.1c0,0.9,0.8,1.6,1.8,1.7v0.1
	h0.1c0,0.2,0,0.4,0,0.6h-0.1l-0.1,0.1c-0.4,0-0.7,0-1.1,0.1c-0.2,0.2-0.3,0.3-0.5,0.5v0.1h-0.1c-0.4,0.4-0.6,1-0.6,1.6
	c-3.3,3-5.7,6.7-7.2,11v0.1c-0.2,0.2-0.4,0.4-0.6,0.5v0.1H8.9c-0.5,0.4-1.1,0.8-1.7,1c-2.7,1.7-3,3.6-0.1,5.4
	c0.1,0.2,0.1,0.4,0.1,0.6L7.1,236c0,0.3,0,0.7,0.1,1c0.4,0.2,0.9,0.4,1.3,0.6c0.5,1.2,1.2,2.3,1.9,3.3c8.1-5.8,21.3-6.3,30.8-4.6
	v-0.1c7-2.4,14.3-0.1,21,2.7c1.5,0.5,3.2,1.2,4.6,2c1.3,0.6,2.7,1.3,3.9,2.1c5.1,2.6,10.5,4.8,16,6.6c7.7,0.8,15.2,2.9,22.8,2.8
	c5.5-4.4,12.6-4.7,17.7,0.1c1.4,0.3,2.8,0.7,4,1.2c0.7,0.9,1.6,1.3,2.7,1.1c0.5,0.3,0.8,0.8,0.9,1.3c0.5,0.3,1.1,0.5,1.7,0.7
	c0.7-1,1.5-1.2,2.6-0.6l0.7-0.5c-0.2-0.8-0.1-1.5,0.2-2.3c1.1-0.9,2.2-1.6,3.4-2.3l0.1-0.5l-0.2-0.4c-1.2-0.4-2.5-0.7-3.9-0.7
	c-0.7-1.4-2.2-2.4-4-2.8l-0.1-0.4l0.1-0.2l-0.1-0.4l-1.3-0.4l-0.2,0.2c-0.7,0.3-1.5,0.1-2.1-0.4l-1.5,0.2c-0.2,0.5-0.5,1-0.7,1.5
	c-1.5,0.6-3.1,0.5-4.5-0.2c-0.5,0-0.9-0.2-1.2-0.6c-1.8,0.4-3.6,0.4-5.4,0.2v-0.1c-0.9-1.7-1.7-3.4-2.3-5.2l0.2-1.5h0.1
	c4.1-3.6,9.1-6.1,14.1-7.1l0.5-1.1l1.1-0.4l1.2,0.5l1,1.5c-0.9,2.4-1.4,4.6-1.6,6.9c0.6,0,1.1,0.2,1.5,0.6c2.2-1.8,4.8-3,7.6-3.4
	l1.6,0.7c1.9-0.7,3.9-0.6,5.6,0.2c0.3,2.3-0.1,4.8-1.3,6.8h-0.1l-0.1,0.1c0,0.1,0,0.3-0.1,0.4c0.5,0.1,1.1,0.3,1.6,0.5
	c1.3-0.5,2.6-0.8,4-0.9c0.2,0.2,0.3,0.3,0.5,0.5c0.4,1.5,0.8,3.1,1,4.6c0.2,0.2,0.3,0.3,0.5,0.5v0.1l0.2,0.4c0,0.5-0.2,1-0.4,1.5
	c2.5-1.2,4.9-1.4,6.5,0.6c0.2,0.2,0.3,0.3,0.5,0.5c1.3,0.3,2.7,0.3,4,0l0.7,0.7l0.1,0.9c0.2,0.2,0.3,0.3,0.5,0.5
	c0.8,0.2,1.7,0.4,2.6,0.6l0.9-0.4c0.3,0.3,0.6,0.5,1,0.6c0,0.3,0.1,0.5,0.4,0.7l0.1,1.1c0.7,0.4,1.5,0.7,2.3,0.7
	c0.2,0.3,0.4,0.7,0.6,1.1c-0.1,0.4-0.2,0.6-0.4,1c0.9,0.7,1.4,1.6,1.3,2.7l-0.6,0.7h-1c-0.4-0.3-0.7-0.5-1-0.9
	c-0.6,0.1-1.2,0.4-1.7,0.7v0.1h-0.1c-0.1,0.1-0.1,0.2-0.1,0.4h-0.1c-0.1,1.2-0.5,2.2-1.2,3.2h-0.1c-0.7,0.5-1.5,0.7-2.4,0.5
	l-0.1,0.5c4.6,3.8,9.8,6.1,15.1,7.8c1.3,0.3,2.7,0.4,4,0.2l0.5,0.6c1.4,0.6,2.7,0.4,3.9-0.5c0.2,0.2,0.5,0.4,0.9,0.5
	c1.8,1.7,3.6,3.5,5.1,5.5h0.2c0.7,0.9,1.2,1.9,1.5,2.9l-0.2,0.4c0.1,0.2,0.1,0.3,0.1,0.5l0.2,0.2c4.1,0.2,8.2-0.4,12.1-1.8l0.6-0.4
	l0.1-0.2c-0.1-0.1-0.2-0.2-0.2-0.2l-0.1,0.1c-1.7,0.8-3.4,1-5.2,0.5c-1.4,1.2-3.1,1.5-4.8,0.9c-0.4-0.7-0.4-1.6,0-2.3
	c1.1-0.2,1.8-0.9,2.2-1.8c0.7-0.3,1.4-0.6,2.1-0.7l0.9,0.4c0.8-0.5,1.7-0.5,2.6-0.1l1.8-0.7l0.6-2.6l-0.2-0.5l-0.2-0.1
	c0-0.9,0.2-1.8,0.6-2.7l0.5-0.1c0.2,0.2,0.4,0.4,0.5,0.6c1.2-0.3,2.5-0.4,3.7-0.1l0.2-0.4v-0.9l0.7-0.2l0.1-0.2l-0.1-0.2
	c-0.7-0.8-1.5-1.1-2.4-0.9l-0.4-0.2c0-0.7,0.1-1.4,0.4-2.1l1.1-0.7c0.8,0.5,1.5,0.6,2.4,0.6c0.5-0.2,0.8-0.6,1-1.1
	c1.2,0.6,2.4,1.1,3.7,1.7l0.1,0.2c-0.7,0.7-1,1.6-1.1,2.6l-1.3,0.5l-0.2,0.4c0.5,0.5,1.1,0.8,1.7,1c0,0.1,0,0.2,0,0.2l-0.4,0.2
	l0.1,0.2c0.6-0.1,1.1-0.3,1.7-0.4c0.2,0.2,0.4,0.4,0.6,0.6c0.5-0.2,1.2-0.4,1.7-0.6l0.5-0.4l1-2.6l-0.2-1.2c0.5-0.1,0.9-0.4,1.2-0.9
	c0-0.2,0-0.4,0-0.6l2.2-0.2c0.6,0.4,1.1,0.8,1.3,1.5v1.2c0.5,0.4,1,0.7,1.6,0.9l1,1.6l-0.2,0.7l-0.5,0.1l-0.6-0.5l-0.5,0.2
	c-0.1,0.5-0.2,1-0.1,1.5c0.7,0.4,1.2,1,1.6,1.7l-0.1,0.6c1.1-0.1,2.1,0.2,2.9,1v1.3c-0.3,0-0.7,0-1,0.1l0.1,0.5
	c-1.8,1.3-4.1,2.3-6.3,2.8l0.1,0.5c10.1-2,16.6-8.4,24.4-14.6l0.2-0.5h0.1V270l-0.1-0.1l-0.5-0.1c-1.7,1.2-3.5,2.6-5.1,4.1H248
	l-0.1,0.1c-0.4-0.1-0.8,0-1.1,0.1l-0.2-0.1v-1.2l-1.5-1l-0.4-1.3c0.3-0.2,0.7-0.2,1,0c0.6,0,1.1-0.3,1.6-0.6c0-0.2,0-0.4,0-0.6
	l0.2-0.4c0.5-0.2,1-0.2,1.5,0.1c0.4-0.1,0.8-0.2,1.1-0.4l0.4-0.7l-0.2-0.6l-1-0.2c-0.4-0.8-0.5-1.7-0.2-2.7
	c-0.2-0.4-0.4-0.9-0.4-1.3c0.3-0.6,0.4-1.2,0.4-1.8l-0.2-0.4c0.2-0.8,0.2-1.6,0-2.4c0.4-0.8,0.8-1.7,1.2-2.6l1.3-0.1
	c0.8,1.7,2,2.5,3.8,2.4c1.1-2,2.9-3.3,5.1-3.7c0.2,0.3,0.5,0.4,0.9,0.5c0.1,1.1-0.1,2.4-0.4,3.5c0.3,0.2,0.7,0.3,1.1,0.4
	c0.2,0.4,0.4,0.8,0.6,1.2c-0.1,1.7-0.9,3.2-2.3,4.3c0,0.7,0.1,1.4,0.4,2.1c5.5-0.6,10.8,0.7,15.4,3.8v0.1c1.5,0.3,3,0.6,4.5,1
	c3.7,1.5,6.4,4,8.2,7.6c-0.3,1-0.2,2,0.2,2.9c2.3-0.2,4,0.9,4.6,3.2l-2.4,4c-0.5,0.3-1,0.5-1.5,0.6c-0.8,1-1.2,2.1-1.3,3.4
	c0.2,0.1,0.5,0.2,0.6,0.4v-0.1c1.5-1.3,2.7-2.8,3.5-4.6v-0.2l0.7-1.2v-0.1c0.3-0.3,0.6-0.4,1-0.2l0.6-1.3l-0.2-0.1
	c1.3-0.8,2.7-1.7,4-2.3c-0.2-0.3-0.3-0.7-0.2-1.1l0.1-0.1l1.2-0.2c1.1,0.8,1.6,1.8,1.6,3.2c0.2,0.3,0.5,0.6,0.9,0.7l0.5-0.2
	c0.2,0.2,0.3,0.3,0.5,0.5h0.1c-0.2,0.2-0.3,0.4-0.2,0.6c0.3,0.2,0.7,0.4,1,0.6c0.1,0,0.2,0,0.4,0c0.4-2.1,1.7-3.8,3.5-4.8
	c0.8,0.7,1.8,0.7,2.8,0.1c0.4-0.8,0.5-1.7,0.5-2.6c0.6-0.6,1.1-1.3,1.7-2c0-0.1,0-0.2,0-0.4c-0.2-0.1-0.4-0.2-0.5-0.5l-0.5,0.1
	l-0.5-1.1l0.1-0.2l1.2-0.6c0.2,0.3,0.4,0.4,0.7,0.5l0.5-0.1C314,274.9,314,274.3,313.7,273.8z"/>
<g>
	<path class="st0" d="M165.2,99h12.6c0.3,0,0.4,0.2,0.4,0.4v5.3c0,0.3-0.1,0.4-0.4,0.4H171v16.6h5.7c0.3,0,0.4,0.2,0.4,0.4v5.3
		c0,0.3-0.1,0.4-0.4,0.4H171V150c0,0.3-0.1,0.4-0.4,0.4h-5.3c-0.3,0-0.4-0.1-0.4-0.4V99.4C164.8,99.1,165,99,165.2,99z"/>
	<path class="st0" d="M186.1,99.1h5.3c0.3,0,0.4,0.2,0.4,0.4v44.7h7.1c0.3,0,0.4,0.2,0.4,0.4v5.3c0,0.3-0.1,0.4-0.4,0.4h-12.8
		c-0.3,0-0.4-0.1-0.4-0.4V99.5C185.7,99.2,185.9,99.1,186.1,99.1z"/>
	<path class="st0" d="M214.3,98.9h0.9c3.7,0,6.1,1.2,7.1,3.5c0.3,1,0.4,1.6,0.4,2V145c0,3-2,4.8-6,5.4h-2.4c-5,0-7.5-2.3-7.5-6.8
		v-38C206.8,101.2,209.3,98.9,214.3,98.9z M213.2,144.1h3.3v-38.9h-3.3V144.1z"/>
	<path class="st0" d="M237.7,98.9h0.9c3.7,0,6.1,1.2,7.1,3.5c0.3,1,0.4,1.6,0.4,2V145c0,3-2,4.8-6,5.4h-2.4c-5,0-7.5-2.3-7.5-6.8
		v-38C230.2,101.2,232.7,98.9,237.7,98.9z M236.6,144.1h3.3v-38.9h-3.3V144.1z"/>
	<path class="st0" d="M254,99h9.9c3.2,0,5,2.1,5.5,6.2v39.1c-0.5,4.1-2.3,6.2-5.5,6.2H254c-0.3,0-0.4-0.1-0.4-0.4V99.4
		C253.6,99.1,253.7,99,254,99z M259.7,144.3h3.5v-39.1h-3.5V144.3z"/>
</g>
<g>
	<path class="st1" d="M44.5,0h13.9c0.8,0.1,1.2,0.5,1.2,1.2v117.4h18.6c0.8,0.1,1.2,0.5,1.2,1.2v13.9c0,0.8-0.4,1.2-1.2,1.2H44.5
		c-0.8,0-1.2-0.4-1.2-1.2V1.2C43.4,0.4,43.8,0,44.5,0z"/>
	<path class="st1" d="M105.8-0.3h14.5c1.2,0,3.9,20.1,8.1,60.3c0.4,0,3.5,24.7,9.3,74.2l-1.2,0.6h-13.3c-1.5,0-3-8.9-4.6-26.7h-10.4
		c-2.1,17.8-3.4,26.7-4.1,26.7H90.1c-0.8,0-1.2-0.4-1.2-1.2C99.5,44.4,105.1-0.3,105.8-0.3z M113.3,59.4h-0.6c0,4.8-1,15.6-2.9,32.5
		h6.4C116.2,88,115.3,77.2,113.3,59.4z"/>
</g>
<g>
	<path class="st1" d="M82.1,156.7c-5.2,4-7.7,9.5-7.7,15c0,6.8,3.7,13.3,10.7,17l18.6-32c5.4-9.4,13.2-14,19.7-14
		c8.8,0,15.8,7,15.8,17.8c0,4.7-1.5,10.2-4.8,16.1c-9.4,16.4-23.9,22.9-36.6,22.9c-2.4,0-4.6-0.2-6.8-0.6l-10.6,18.4
		c-1,1.8-2.2,3.4-3.2,4.9c2.2,2.3,4.2,4.7,6.7,7c14.3,14.6,22,21.9,31.1,21.9c5.7,0,11.2-1.4,16.5-6.5l5.9,6.2c0,0-6.9,9.8-22.6,9.8
		c-16.9,0-31.1-18.4-43.9-31.5c-6.2,5.2-13.1,7.5-18.9,7.5c-11.4,0-16.9-7.5-16.9-14.9c0-7.5,5.5-15,16.3-15
		c7.3,0,13.1,3.4,18.6,8.4c0.6-0.8,1-1.7,1.6-2.6l9.5-16.5c-9.8-4.9-15.1-14.1-15.1-23.7c0-8,3.8-16.2,12.3-22.3L82.1,156.7z
		 M63.8,222.2c-4.6-3.9-9.2-6.5-13.5-6.5c-4,0-6.3,3-6.3,6c0,2.9,2.2,5.6,6.9,5.6C55.8,227.2,60.1,225.5,63.8,222.2z M95.4,191.5
		h2.4c18.6,0,32.1-20.1,32.1-31.2c0-4.4-2.1-7.3-6.5-7.3c-3.3,0-7.2,2.6-10.8,8.7L95.4,191.5z"/>
	<path class="st1" d="M155.8,221.9c-16.1,20.3-44.9,10.8-29.8-15l5.2-8.8l5.9-10.2c6.9-11.9,14-15.6,23.2-15.6
		c11.2,0,17.9,11.8,10.7,24.3L159.5,216c6-0.1,12.6-3,18-8.8l0.8-0.9c1.6,0.7,3.7,2.5,4.5,4.1c-6.1,7.2-17.3,11.6-24.4,11.6H155.8z
		 M152.3,207h0.6l8.7-14.9c7.2-12.4-4.2-18-12.6-3.8l-5.7,9.8l-9.1,15.7c-7.1,12.4,6.5,14.2,12.2,4.6l0.1-0.2
		c-0.7-1.1-1.1-2.5-1.1-4C145.3,210.2,148.4,207,152.3,207z"/>
	<path class="st1" d="M203.4,173.9l-15.9,39.8c-4.6,11.5-3.8,11.2,3.4,0.3l26.7-40.2h10.8L209,202.8c-6.3,12.8,4.9,11.4,11.4,4.4
		l0.8-0.9c1.6,0.7,3.7,2.5,4.5,4.1c-9.9,11.6-20.9,10-24.1,3.6l-6.2,9.3c-9.3,14-28.7,11.9-20.6-7.9l16.6-41.4H203.4z"/>
	<path class="st1" d="M231.7,208.7l-1.1,2.1c-5.5,9.6-1.1,14.2,6.2,14.2c8.4,0,19.4-7.9,28-17.9l0.8-0.9c1.6,0.7,3.7,2.5,4.5,4.1
		c-9.9,11.5-23.3,22-36.8,22c-14.1,0-20.5-11.7-13.1-24.4l12.5-21.5c5-8.7,12.7-13.8,22.4-13.8c9.8,0,15.9,8.3,9.5,19.3l-1.7,3
		C253.8,210.5,239.4,212,231.7,208.7z M235.1,202.9c4.5,1.6,12.2,1.8,17.9-7.9l1.7-3c7.1-12.4-5-14.3-11.9-2.5L235.1,202.9z"/>
</g>
</svg>
